#!OML:ASF H:\ManfredObstacles\Project 1\Capture day 1\Session 1\Male.ASF
:FULLY-SPECIFIED
:DEGREES
509
root -3.12223 16.0955 -1.52108 -172.215 3.89806 -180.397
lowerback -9.75291 0.287709 -3.00334
upperback 1.98801 0.953428 -1.8287
thorax 7.57146 0.400524 -0.0820062
lowerneck 1.79183 -2.16877 -5.57907
upperneck -4.48448 -2.39448 10.8403
head -1.55705 -1.20674 4.66459
rclavicle -3.97569e-016 -3.97569e-015
rhumerus -31.041 -14.6247 -84.8336
rradius 30.1236
rwrist 29.3704
rhand 1.99742 -6.57082
rfingers 7.12502
rthumb 27.5021 -34.5824
lclavicle -3.97569e-016 -3.97569e-015
lhumerus -32.7838 29.4341 70.165
lradius 14.4304
lwrist -42.3765
lhand -8.44177 10.0227
lfingers 7.12502
lthumb 17.4837 39.2565
rfemur -14.6015 -6.08361 18.8394
rtibia 62.4507
rfoot -5.14625 12.335
rtoes 12.6542
lfemur -29.2257 6.35972 -24.5116
ltibia 33.0383
lfoot -3.31574 -20.2771
ltoes 3.39119
510
root -3.1399 16.1102 -1.70568 -172.463 3.73015 -180.794
lowerback -9.52798 0.0755091 -3.50163
upperback 2.12367 0.743499 -1.92273
thorax 7.58911 0.281302 0.0639147
lowerneck 1.90581 -2.15129 -5.61112
upperneck -4.90028 -2.31188 11.3074
head -1.54132 -1.19359 4.35493
rclavicle -1.12313e-014 3.10104e-014
rhumerus -31.3305 -14.7149 -84.4997
rradius 30.1297
rwrist 30.0492
rhand 1.17951 -5.06904
rfingers 7.12502
rthumb 26.7196 -33.2025
lclavicle -1.12313e-014 3.10104e-014
lhumerus -31.751 26.6937 72.1563
lradius 15.1309
lwrist -39.5629
lhand -8.85513 10.0236
lfingers 7.12502
lthumb 17.0859 39.2923
rfemur -16.8146 -6.97681 18.2764
rtibia 65.6427
rfoot -7.47115 10.3198
rtoes 10.5094
lfemur -27.9867 6.68446 -25.0491
ltibia 32.6305
lfoot -3.65393 -21.0105
ltoes 4.04082
511
root -3.15309 16.1136 -1.86297 -172.572 3.51614 -180.699
lowerback -9.1176 -0.059925 -3.5014
upperback 2.19273 0.540602 -1.88939
thorax 7.43151 0.182697 0.0659514
lowerneck 2.00989 -2.15802 -5.55402
upperneck -5.1564 -2.29354 11.3269
head -1.6356 -1.19067 4.35545
rclavicle -3.27995e-015 -1.27222e-014
rhumerus -31.702 -15.0373 -84.1108
rradius 30.213
rwrist 30.4775
rhand 1.1863 -5.53877
rfingers 7.12502
rthumb 26.7261 -33.6713
lclavicle -3.27995e-015 -1.27222e-014
lhumerus -30.7201 23.7137 74.1126
lradius 15.8328
lwrist -36.8177
lhand -9.29141 9.97324
lfingers 7.12502
lthumb 16.6659 39.2778
rfemur -19.3008 -7.26759 18.4
rtibia 68.1322
rfoot -8.80562 8.98796
rtoes 13.6768
lfemur -27.1563 6.82807 -24.9799
ltibia 32.4652
lfoot -4.02308 -21.4608
ltoes 4.24511
512
root -3.17562 16.12 -2.04163 -172.936 3.1893 -181.462
lowerback -8.83199 -0.288379 -4.17199
upperback 2.39783 0.3464 -2.11912
thorax 7.49431 0.0702994 0.169831
lowerneck 2.11966 -2.18624 -5.55639
upperneck -5.34627 -2.30959 11.4082
head -1.70674 -1.20444 4.38464
rclavicle 1.68967e-015 6.36111e-015
rhumerus -32.0388 -15.7569 -83.5991
rradius 30.1078
rwrist 30.8187
rhand 0.732869 -5.80685
rfingers 7.12502
rthumb 26.2921 -34.0049
lclavicle 1.68967e-015 6.36111e-015
lhumerus -29.7384 21.4118 75.6455
lradius 16.4659
lwrist -35.2294
lhand -9.33689 10.2081
lfingers 7.12502
lthumb 16.6221 39.5163
rfemur -21.305 -7.75866 17.3781
rtibia 70.0431
rfoot -10.1695 8.76198
rtoes 16.7551
lfemur -25.9657 6.81999 -25.8771
ltibia 32.3936
lfoot -4.46648 -21.971
ltoes 4.97207
513
root -3.18726 16.1228 -2.21455 -173.042 2.91946 -180.964
lowerback -8.67839 -0.38409 -3.70853
upperback 2.48377 0.137269 -1.97914
thorax 7.50212 -0.0200361 0.025215
lowerneck 2.39468 -2.19766 -5.48328
upperneck -5.54008 -2.31366 11.3981
head -1.81017 -1.21891 4.37557
rclavicle -8.94531e-016 1.90833e-014
rhumerus -32.6079 -16.6399 -82.9566
rradius 29.9759
rwrist 31.0967
rhand 0.15546 -5.93231
rfingers 7.12502
rthumb 25.7393 -34.2116
lclavicle -8.94531e-016 1.90833e-014
lhumerus -28.8583 19.9867 76.6972
lradius 16.8685
lwrist -34.5404
lhand -9.17473 10.4801
lfingers 7.12502
lthumb 16.7782 39.7751
rfemur -23.4692 -7.55052 17.9854
rtibia 71.166
rfoot -11.657 8.70046
rtoes 15.595
lfemur -25.2441 6.53633 -25.2885
ltibia 32.645
lfoot -5.28185 -22.1272
ltoes 4.77965
514
root -3.19417 16.1119 -2.36484 -173.048 2.92185 -181.11
lowerback -8.36769 -0.450088 -3.97056
upperback 2.44161 0.0643671 -1.9902
thorax 7.28107 -0.0623515 0.152078
lowerneck 2.56705 -2.1925 -5.41777
upperneck -5.56575 -2.30803 11.3913
head -1.848 -1.22337 4.36521
rclavicle -2.38542e-015 4.05521e-014
rhumerus -33.4695 -17.4641 -82.2014
rradius 30.0907
rwrist 31.1599
rhand -0.10731 -6.07679
rfingers 7.12502
rthumb 25.4876 -34.3923
lclavicle -2.38542e-015 4.05521e-014
lhumerus -28.027 18.6764 77.691
lradius 17.1202
lwrist -33.4629
lhand -9.37057 10.2478
lfingers 7.12502
lthumb 16.5897 39.5588
rfemur -25.9025 -7.01667 17.9526
rtibia 71.8504
rfoot -13.1727 8.70441
rtoes 13.3304
lfemur -24.7578 6.11705 -25.387
ltibia 32.9081
lfoot -6.18769 -21.9883
ltoes 4.14862
